<svg width="62" height="62" viewBox="0 0 62 62" fill="none" xmlns="http://www.w3.org/2000/svg">
<path d="M10.1403 10.1404L10.1404 10.1404C15.6727 4.60799 23.1764 1.5 31 1.5C38.8237 1.5 46.3279 4.60801 51.8596 10.1403C57.3914 15.6728 60.5 23.1764 60.5 31C60.5 38.8236 57.392 46.3266 51.8596 51.8596C46.3275 57.3917 38.8244 60.4997 31.0011 60.5C23.1799 60.491 15.6816 57.3804 10.1509 51.8498C4.62028 46.3193 1.50973 38.8211 1.5008 30.9996L1.50058 30.8146C1.54925 23.0576 4.65172 15.6284 10.1403 10.1404ZM21.7317 44.2428C21.5667 45.2294 21.8005 46.2412 22.3818 47.0556L22.5968 47.3567L22.63 47.3649C23.2006 48.0087 23.977 48.4414 24.8332 48.5846L24.8339 48.5847C25.8208 48.7489 26.8324 48.5145 27.6466 47.9327C27.6467 47.9326 27.6468 47.9326 27.6469 47.9325L40.74 38.5831L40.7404 38.5829C43.1887 36.8328 44.641 34.0088 44.641 30.9995L44.641 30.9993C44.6404 27.99 43.1875 25.1659 40.7385 23.4169C40.7385 23.4169 40.7385 23.4169 40.7385 23.4169L27.6554 14.0731C26.8447 13.4691 25.8248 13.2156 24.8251 13.3701L24.8245 13.3702C23.8212 13.526 22.9226 14.079 22.3321 14.9055L22.3319 14.9058C21.7418 15.7322 21.5093 16.7618 21.6881 17.7619C21.8658 18.7578 22.4362 19.6405 23.2708 20.2121L36.335 29.5431C36.7807 29.8947 37.0413 30.4314 37.0413 31.0001C37.0413 31.568 36.7809 32.1049 36.3348 32.4573L23.5213 41.6081L23.5207 41.6081L23.2599 41.7944C22.4463 42.3757 21.8966 43.256 21.7317 44.2428Z" stroke="#3C1A51" stroke-width="2"/>
</svg>
