<svg width="102" height="102" viewBox="0 0 102 102" fill="none" xmlns="http://www.w3.org/2000/svg">
<g filter="url(#filter0_d_21_166)">
<path d="M49.2605 35.6737C48.6084 36.0002 48.0648 36.3258 47.5212 36.8693C42.3033 42.0872 36.9781 47.4125 31.7605 52.6301C27.3044 57.0862 34.1518 63.9349 38.6081 59.4777L51.1086 46.9772C55.2391 51.1077 59.2613 55.1299 63.391 59.2596C67.847 63.7156 74.6957 56.8682 70.2386 52.4119L54.4778 36.6512C52.8481 34.9119 50.8918 34.9119 49.261 35.6735L49.2605 35.6737Z" fill="#0AD9CA"/>
<path d="M11 50.9999C11 73.0657 28.9353 90.9999 51 90.9999C73.0658 90.9999 91 73.0647 91 50.9999C91 28.9341 73.0647 10.9999 51 10.9999C28.9353 10.9999 11 28.9341 11 50.9999ZM83.3921 50.9999C83.3921 68.9352 68.8268 83.3921 51 83.3921C33.0647 83.3921 18.6079 68.8268 18.6079 50.9999C18.6079 33.1731 33.1731 18.6078 51 18.6078C68.8268 18.6078 83.3921 33.0644 83.3921 50.9999Z" fill="#0AD9CA"/>
</g>
<defs>
<filter id="filter0_d_21_166" x="0.1" y="0.0999393" width="101.8" height="101.8" filterUnits="userSpaceOnUse" color-interpolation-filters="sRGB">
<feFlood flood-opacity="0" result="BackgroundImageFix"/>
<feColorMatrix in="SourceAlpha" type="matrix" values="0 0 0 0 0 0 0 0 0 0 0 0 0 0 0 0 0 0 127 0" result="hardAlpha"/>
<feOffset/>
<feGaussianBlur stdDeviation="5.45"/>
<feComposite in2="hardAlpha" operator="out"/>
<feColorMatrix type="matrix" values="0 0 0 0 0.8145 0 0 0 0 0.514167 0 0 0 0 1 0 0 0 0.1 0"/>
<feBlend mode="normal" in2="BackgroundImageFix" result="effect1_dropShadow_21_166"/>
<feBlend mode="normal" in="SourceGraphic" in2="effect1_dropShadow_21_166" result="shape"/>
</filter>
</defs>
</svg>
