<svg width="147" height="23" viewBox="0 0 147 23" fill="none" xmlns="http://www.w3.org/2000/svg">
<path d="M7.0264 7.27377L9.79733 1.39899C10.1528 0.644834 11.1805 0.644834 11.536 1.39899L14.3069 7.27377L20.5029 8.22163C21.2979 8.34323 21.6147 9.36601 21.0392 9.95273L16.5565 14.5224L17.6144 20.9782C17.7504 21.8072 16.9189 22.4392 16.2075 22.0478L10.6667 18.9981L5.12584 22.0478C4.4145 22.4392 3.58301 21.8072 3.71888 20.9782L4.7768 14.5224L0.294131 9.95273C-0.281415 9.36601 0.0354377 8.34323 0.830424 8.22163L7.0264 7.27377Z" fill="#CBD11C"/>
<path d="M38.3599 7.27377L41.1308 1.39899C41.4863 0.644834 42.514 0.644834 42.8695 1.39899L45.6404 7.27377L51.8364 8.22163C52.6314 8.34323 52.9482 9.36601 52.3727 9.95273L47.89 14.5224L48.9479 20.9782C49.0839 21.8072 48.2524 22.4392 47.541 22.0478L42.0002 18.9981L36.4593 22.0478C35.748 22.4392 34.9165 21.8072 35.0524 20.9782L36.1103 14.5224L31.6276 9.95273C31.0521 9.36601 31.3689 8.34323 32.1639 8.22163L38.3599 7.27377Z" fill="#CBD11C"/>
<path d="M69.6929 7.27377L72.4638 1.39899C72.8193 0.644834 73.847 0.644834 74.2025 1.39899L76.9734 7.27377L83.1694 8.22163C83.9644 8.34323 84.2812 9.36601 83.7057 9.95273L79.223 14.5224L80.2809 20.9782C80.4169 21.8072 79.5854 22.4392 78.874 22.0478L73.3332 18.9981L67.7923 22.0478C67.081 22.4392 66.2495 21.8072 66.3854 20.9782L67.4433 14.5224L62.9606 9.95273C62.3851 9.36601 62.7019 8.34323 63.4969 8.22163L69.6929 7.27377Z" fill="#CBD11C"/>
<path d="M101.026 7.27377L103.797 1.39899C104.153 0.644834 105.181 0.644834 105.536 1.39899L108.307 7.27377L114.503 8.22163C115.298 8.34323 115.615 9.36601 115.039 9.95273L110.557 14.5224L111.614 20.9782C111.75 21.8072 110.919 22.4392 110.207 22.0478L104.667 18.9981L99.1258 22.0478C98.4145 22.4392 97.583 21.8072 97.7189 20.9782L98.7768 14.5224L94.2941 9.95273C93.7186 9.36601 94.0354 8.34323 94.8304 8.22163L101.026 7.27377Z" fill="#CBD11C"/>
<path d="M132.359 7.27377L135.13 1.39899C135.486 0.644834 136.514 0.644834 136.869 1.39899L139.64 7.27377L145.836 8.22163C146.631 8.34323 146.948 9.36601 146.372 9.95273L141.89 14.5224L142.947 20.9782C143.083 21.8072 142.252 22.4392 141.54 22.0478L136 18.9981L130.459 22.0478C129.748 22.4392 128.916 21.8072 129.052 20.9782L130.11 14.5224L125.627 9.95273C125.052 9.36601 125.368 8.34323 126.163 8.22163L132.359 7.27377Z" fill="#CBD11C"/>
</svg>
