<svg width="20" height="20" viewBox="0 0 20 20" fill="none" xmlns="http://www.w3.org/2000/svg">
<path d="M20 11.693V19.072H15.722V12.187C15.722 10.457 15.103 9.277 13.555 9.277C12.373 9.277 11.669 10.073 11.36 10.842C11.247 11.117 11.218 11.5 11.218 11.885V19.072H6.93802C6.93802 19.072 6.99602 7.412 6.93802 6.203H11.218V8.027L11.19 8.069H11.218V8.027C11.786 7.152 12.801 5.901 15.074 5.901C17.889 5.901 20 7.741 20 11.693ZM2.46202 0C0.999016 0 0.0410156 0.96 0.0410156 2.223C0.0410156 3.458 0.971016 4.447 2.40602 4.447H2.43402C3.92702 4.447 4.85402 3.458 4.85402 2.223C4.82802 0.96 3.92802 0 2.46302 0H2.46202ZM0.295016 19.072H4.57302V6.203H0.295016V19.072Z" fill="#3C1A51"/>
</svg>
