<svg width="102" height="102" viewBox="0 0 102 102" fill="none" xmlns="http://www.w3.org/2000/svg">
<g filter="url(#filter0_d_21_158)">
<rect x="11" y="11" width="80" height="80" rx="40" fill="#34C75B" shape-rendering="crispEdges"/>
<path d="M31 71L33.8251 60.7283C32.0818 57.7217 31.1658 54.3133 31.1675 50.8183C31.1725 39.8917 40.1066 31 51.0837 31C56.4107 31.0017 61.4111 33.0667 65.1723 36.8133C68.9318 40.56 71.0017 45.54 71 50.8367C70.995 61.765 62.0609 70.6567 51.0837 70.6567C47.7512 70.655 44.4673 69.8233 41.5585 68.2433L31 71ZM42.0475 64.655C44.8541 66.3133 47.5335 67.3067 51.077 67.3083C60.2004 67.3083 67.6323 59.9183 67.6374 50.8333C67.6407 41.73 60.2439 34.35 51.0904 34.3467C41.9604 34.3467 34.5335 41.7367 34.5301 50.82C34.5284 54.5283 35.6203 57.305 37.454 60.21L35.781 66.29L42.0475 64.655ZM61.1164 55.5483C60.9925 55.3417 60.6609 55.2183 60.1619 54.97C59.6645 54.7217 57.2179 53.5233 56.7607 53.3583C56.3052 53.1933 55.9736 53.11 55.6404 53.6067C55.3088 54.1017 54.3543 55.2183 54.0646 55.5483C53.7748 55.8783 53.4835 55.92 52.9861 55.6717C52.4887 55.4233 50.8845 54.9017 48.9838 53.2133C47.5051 51.9 46.5053 50.2783 46.2156 49.7817C45.9259 49.2867 46.1855 49.0183 46.4333 48.7717C46.6577 48.55 46.9307 48.1933 47.1802 47.9033C47.4331 47.6167 47.5151 47.41 47.6826 47.0783C47.8484 46.7483 47.7663 46.4583 47.6407 46.21C47.5151 45.9633 46.5204 43.525 46.1068 42.5333C45.7015 41.5683 45.2912 41.6983 44.9864 41.6833L44.0319 41.6667C43.7003 41.6667 43.1611 41.79 42.7056 42.2867C42.2501 42.7833 40.964 43.98 40.964 46.4183C40.964 48.8567 42.7475 51.2117 42.9953 51.5417C43.2448 51.8717 46.5036 56.875 51.4957 59.02C52.683 59.53 53.6107 59.835 54.3325 60.0633C55.5248 60.44 56.61 60.3867 57.4674 60.26C58.4236 60.1183 60.4114 59.0617 60.8267 57.905C61.242 56.7467 61.242 55.755 61.1164 55.5483Z" fill="#3C1A51"/>
</g>
<defs>
<filter id="filter0_d_21_158" x="0.1" y="0.1" width="101.8" height="101.8" filterUnits="userSpaceOnUse" color-interpolation-filters="sRGB">
<feFlood flood-opacity="0" result="BackgroundImageFix"/>
<feColorMatrix in="SourceAlpha" type="matrix" values="0 0 0 0 0 0 0 0 0 0 0 0 0 0 0 0 0 0 127 0" result="hardAlpha"/>
<feOffset/>
<feGaussianBlur stdDeviation="5.45"/>
<feComposite in2="hardAlpha" operator="out"/>
<feColorMatrix type="matrix" values="0 0 0 0 0.8145 0 0 0 0 0.514167 0 0 0 0 1 0 0 0 0.1 0"/>
<feBlend mode="normal" in2="BackgroundImageFix" result="effect1_dropShadow_21_158"/>
<feBlend mode="normal" in="SourceGraphic" in2="effect1_dropShadow_21_158" result="shape"/>
</filter>
</defs>
</svg>
