<svg width="80" height="80" viewBox="0 0 80 80" fill="none" xmlns="http://www.w3.org/2000/svg">
<path d="M23.3525 59.1247C21.8626 59.5137 20.5105 58.1438 20.9188 56.6592L22.6028 50.5367C22.745 50.0196 22.6691 49.4693 22.4201 48.9943C20.9402 46.1722 20.1659 43.0319 20.1675 39.8183C20.1725 28.8917 29.1066 20 40.0837 20C45.4107 20.0017 50.4111 22.0667 54.1723 25.8133C57.9318 29.56 60.0017 34.54 60 39.8367C59.995 50.765 51.0609 59.6567 40.0837 59.6567C37.0167 59.6551 33.9909 58.9506 31.2607 57.6067C30.8049 57.3823 30.285 57.3147 29.7934 57.4431L23.3525 59.1247ZM30.2419 53.8652C30.7575 53.7307 31.3038 53.8109 31.7703 54.0684C34.322 55.4771 36.8387 56.3068 40.077 56.3083C49.2004 56.3083 56.6323 48.9183 56.6374 39.8333C56.6407 30.73 49.2439 23.35 40.0904 23.3467C30.9604 23.3467 23.5335 30.7367 23.5301 39.82C23.5286 43.2066 24.4391 45.8162 25.9937 48.4562C26.2792 48.9409 26.3689 49.5191 26.2197 50.0614L25.7002 51.9495C25.2917 53.4341 26.6436 54.804 28.1335 54.4153L30.2419 53.8652ZM50.1164 44.5483C49.9925 44.3417 49.6609 44.2183 49.1619 43.97C48.6645 43.7217 46.2179 42.5233 45.7607 42.3583C45.3052 42.1933 44.9736 42.11 44.6404 42.6067C44.3088 43.1017 43.3543 44.2183 43.0646 44.5483C42.7748 44.8783 42.4835 44.92 41.9861 44.6717C41.4887 44.4233 39.8845 43.9017 37.9838 42.2133C36.5051 40.9 35.5053 39.2783 35.2156 38.7817C34.9259 38.2867 35.1855 38.0183 35.4333 37.7717C35.6577 37.55 35.9307 37.1933 36.1802 36.9033C36.4331 36.6167 36.5151 36.41 36.6826 36.0783C36.8484 35.7483 36.7663 35.4583 36.6407 35.21C36.5151 34.9633 35.5204 32.525 35.1068 31.5333C34.7015 30.5683 34.2912 30.6983 33.9864 30.6833L33.0319 30.6667C32.7003 30.6667 32.1611 30.79 31.7056 31.2867C31.2501 31.7833 29.964 32.98 29.964 35.4183C29.964 37.8567 31.7475 40.2117 31.9953 40.5417C32.2448 40.8717 35.5036 45.875 40.4957 48.02C41.683 48.53 42.6107 48.835 43.3325 49.0633C44.5248 49.44 45.61 49.3867 46.4674 49.26C47.4236 49.1183 49.4114 48.0617 49.8267 46.905C50.242 45.7467 50.242 44.755 50.1164 44.5483Z" fill="#34C75B"/>
<path d="M-1.74846e-06 40C-7.83929e-07 62.0658 17.9353 80 40 80C62.0658 80 80 62.0647 80 40C80 17.9342 62.0647 -2.71293e-06 40 -1.74846e-06C17.9353 -7.83975e-07 -2.71298e-06 17.9342 -1.74846e-06 40ZM72.3921 40C72.3921 57.9353 57.8268 72.3921 40 72.3921C22.0647 72.3921 7.60787 57.8269 7.60787 40C7.60787 22.1731 22.1731 7.60788 40 7.60788C57.8268 7.60788 72.3921 22.0645 72.3921 40Z" fill="#34C75B"/>
</svg>
