<svg width="102" height="102" viewBox="0 0 102 102" fill="none" xmlns="http://www.w3.org/2000/svg">
<g filter="url(#filter0_d_96_80)">
<path d="M11 51C11 73.0658 28.9353 91 51 91C73.0658 91 91 73.0647 91 51C91 28.9342 73.0647 11 51 11C28.9353 11 11 28.9342 11 51ZM83.3921 51C83.3921 68.9353 68.8268 83.3921 51 83.3921C33.0647 83.3921 18.6079 68.8269 18.6079 51C18.6079 33.1731 33.1731 18.6079 51 18.6079C68.8268 18.6079 83.3921 33.0645 83.3921 51Z" fill="#34C75B"/>
<path d="M34.3525 70.1247C32.8626 70.5137 31.5105 69.1438 31.9188 67.6592L33.6028 61.5367C33.745 61.0196 33.6691 60.4693 33.4201 59.9943C31.9402 57.1722 31.1659 54.0319 31.1675 50.8183C31.1725 39.8917 40.1066 31 51.0837 31C56.4107 31.0017 61.4111 33.0667 65.1723 36.8133C68.9318 40.56 71.0017 45.54 71 50.8367C70.995 61.765 62.0609 70.6567 51.0837 70.6567C48.0167 70.6551 44.9909 69.9506 42.2607 68.6067C41.8049 68.3823 41.285 68.3147 40.7934 68.4431L34.3525 70.1247ZM41.2419 64.8652C41.7575 64.7307 42.3038 64.8109 42.7703 65.0684C45.322 66.4771 47.8387 67.3068 51.077 67.3083C60.2004 67.3083 67.6323 59.9183 67.6374 50.8333C67.6407 41.73 60.2439 34.35 51.0904 34.3467C41.9604 34.3467 34.5335 41.7367 34.5301 50.82C34.5286 54.2066 35.4391 56.8162 36.9937 59.4562C37.2792 59.9409 37.3689 60.5191 37.2197 61.0614L36.7002 62.9495C36.2917 64.4341 37.6436 65.804 39.1335 65.4153L41.2419 64.8652ZM61.1164 55.5483C60.9925 55.3417 60.6609 55.2183 60.1619 54.97C59.6645 54.7217 57.2179 53.5233 56.7607 53.3583C56.3052 53.1933 55.9736 53.11 55.6404 53.6067C55.3088 54.1017 54.3543 55.2183 54.0646 55.5483C53.7748 55.8783 53.4835 55.92 52.9861 55.6717C52.4887 55.4233 50.8845 54.9017 48.9838 53.2133C47.5051 51.9 46.5053 50.2783 46.2156 49.7817C45.9259 49.2867 46.1855 49.0183 46.4333 48.7717C46.6577 48.55 46.9307 48.1933 47.1802 47.9033C47.4331 47.6167 47.5151 47.41 47.6826 47.0783C47.8484 46.7483 47.7663 46.4583 47.6407 46.21C47.5151 45.9633 46.5204 43.525 46.1068 42.5333C45.7015 41.5683 45.2912 41.6983 44.9864 41.6833L44.0319 41.6667C43.7003 41.6667 43.1611 41.79 42.7056 42.2867C42.2501 42.7833 40.964 43.98 40.964 46.4183C40.964 48.8567 42.7475 51.2117 42.9953 51.5417C43.2448 51.8717 46.5036 56.875 51.4957 59.02C52.683 59.53 53.6107 59.835 54.3325 60.0633C55.5248 60.44 56.61 60.3867 57.4674 60.26C58.4236 60.1183 60.4114 59.0617 60.8267 57.905C61.242 56.7467 61.242 55.755 61.1164 55.5483Z" fill="#34C75B"/>
</g>
<defs>
<filter id="filter0_d_96_80" x="0.1" y="0.1" width="101.8" height="101.8" filterUnits="userSpaceOnUse" color-interpolation-filters="sRGB">
<feFlood flood-opacity="0" result="BackgroundImageFix"/>
<feColorMatrix in="SourceAlpha" type="matrix" values="0 0 0 0 0 0 0 0 0 0 0 0 0 0 0 0 0 0 127 0" result="hardAlpha"/>
<feOffset/>
<feGaussianBlur stdDeviation="5.45"/>
<feComposite in2="hardAlpha" operator="out"/>
<feColorMatrix type="matrix" values="0 0 0 0 0.8145 0 0 0 0 0.514167 0 0 0 0 1 0 0 0 0.1 0"/>
<feBlend mode="normal" in2="BackgroundImageFix" result="effect1_dropShadow_96_80"/>
<feBlend mode="normal" in="SourceGraphic" in2="effect1_dropShadow_96_80" result="shape"/>
</filter>
</defs>
</svg>
